<svg xmlns="http://www.w3.org/2000/svg" width="160" height="96" fill="none" viewBox="0 0 160 96"><path d="m0 0h160v96h-160z"/><circle cx="6" cy="6" r="6" fill="#00ca8e"/><circle cx="134" cy="6" r="6" fill="#00ca8e"/><circle cx="70" cy="6" r="6" fill="#00ca8e"/><circle cx="6" cy="70" r="6" fill="#dbdbdc"/><g fill="#00ca8e"><circle cx="134" cy="70" r="6"/><circle cx="70" cy="70" r="6"/><circle cx="6" cy="26" r="6"/><circle cx="134" cy="26" r="6"/><circle cx="70" cy="26" r="6"/></g><circle cx="6" cy="90" r="6" fill="#dbdbdc"/><circle cx="134" cy="90" r="6" fill="#00ca8e"/><circle cx="70" cy="90" r="6" fill="#dbdbdc"/><circle cx="26" cy="6" r="6" fill="#00ca8e"/><circle cx="154" cy="6" r="6" fill="#00ca8e"/><circle cx="90" cy="6" r="6" fill="#dbdbdc"/><circle cx="26" cy="70" r="6" fill="#dbdbdc"/><circle cx="154" cy="70" r="6" fill="#00ca8e"/><circle cx="90" cy="70" r="6" fill="#00ca8e"/><circle cx="26" cy="26" r="6" fill="#dbdbdc"/><circle cx="154" cy="26" r="6" fill="#00ca8e"/><circle cx="90" cy="26" r="6" fill="#00ca8e"/><circle cx="26" cy="90" r="6" fill="#dbdbdc"/><circle cx="154" cy="90" r="6" fill="#dbdbdc"/><circle cx="90" cy="90" r="6" fill="#dbdbdc"/></svg>