<svg xmlns="http://www.w3.org/2000/svg" xmlns:xlink="http://www.w3.org/1999/xlink" width="80" height="80" fill="none" viewBox="0 0 80 80"><linearGradient id="a"><stop offset="0" stop-color="#60dea9"/><stop offset=".938" stop-color="#f1fdcd"/></linearGradient><linearGradient id="b" x1="28" x2="67.221" y1="21" y2="68.912" gradientUnits="userSpaceOnUse" xlink:href="#a"/><linearGradient id="c" x1="8" x2="43.191" y1="71" y2="39.01" gradientUnits="userSpaceOnUse" xlink:href="#a"/><linearGradient id="d" x1="37.2" x2="57.047" y1="55" y2="11.903" gradientUnits="userSpaceOnUse"><stop offset="0" stop-color="#60dea9"/><stop offset=".359" stop-color="#60dea9" stop-opacity=".96"/><stop offset=".703" stop-color="#60dea9" stop-opacity=".88"/><stop offset="1" stop-color="#60dea9" stop-opacity=".7"/></linearGradient><path fill="#fff" d="m0 0h80v80h-80z"/><rect width="44" height="44" x="28" y="21" fill="#fff" fill-opacity=".8" rx="1.5"/><rect width="44" height="44" x="28" y="21" fill="url(#b)" fill-opacity=".4" rx="1.5"/><rect width="44" height="44" x="8" y="27" fill="#fff" fill-opacity=".8" rx="1.5"/><rect width="44" height="44" x="8" y="27" fill="url(#c)" fill-opacity=".9" rx="1.5"/><rect width="44" height="44" x="18" y="11" fill="url(#d)" rx="1.5"/><g stroke="#000" stroke-width="1.75"><path fill-rule="evenodd" stroke-linecap="round" stroke-linejoin="round" d="m35 37c-1.6569 0-3 1.3431-3 3s1.3431 3 3 3 3-1.3431 3-3-1.3431-3-3-3z" clip-rule="evenodd"/><path fill-rule="evenodd" stroke-linecap="round" stroke-linejoin="round" d="m47 30c-1.6569 0-3 1.3431-3 3s1.3431 3 3 3 3-1.3431 3-3-1.3431-3-3-3z" clip-rule="evenodd"/><path fill-rule="evenodd" stroke-linecap="round" stroke-linejoin="round" d="m35 23c-1.6569 0-3 1.3431-3 3s1.3431 3 3 3 3-1.3431 3-3-1.3431-3-3-3z" clip-rule="evenodd"/><path stroke-linecap="round" stroke-linejoin="round" d="m44.4102 31.4902-6.83-3.98"/><path stroke-linecap="round" stroke-linejoin="round" d="m37.5902 38.4902 6.82-3.98"/><path d="m35.125 29v8"/></g></svg>