<svg xmlns="http://www.w3.org/2000/svg" xmlns:xlink="http://www.w3.org/1999/xlink" width="80" height="80" fill="none" viewBox="0 0 80 80"><linearGradient id="a"><stop offset="0" stop-color="#60dea9"/><stop offset=".938" stop-color="#f1fdcd"/></linearGradient><linearGradient id="b" x1="18" x2="57.221" y1="30" y2="77.912" gradientUnits="userSpaceOnUse" xlink:href="#a"/><linearGradient id="c" x1="18" x2="61.566" y1="64" y2="68.346" gradientUnits="userSpaceOnUse" xlink:href="#a"/><linearGradient id="d" x1="37.2" x2="57.047" y1="54" y2="10.903" gradientUnits="userSpaceOnUse"><stop offset="0" stop-color="#60dea9"/><stop offset=".359" stop-color="#60dea9" stop-opacity=".96"/><stop offset=".703" stop-color="#60dea9" stop-opacity=".88"/><stop offset="1" stop-color="#60dea9" stop-opacity=".7"/></linearGradient><path fill="#fff" d="m0 0h80v80h-80z"/><rect width="44" height="44" x="18" y="30" fill="#fff" fill-opacity=".8" rx="1.5"/><rect width="44" height="44" x="18" y="30" fill="url(#b)" fill-opacity=".4" rx="1.5"/><rect width="44" height="44" x="18" y="20" fill="#fff" fill-opacity=".8" rx="1.5"/><rect width="44" height="44" x="18" y="20" fill="url(#c)" fill-opacity=".9" rx="1.5"/><rect width="44" height="44" x="18" y="10" fill="url(#d)" rx="1.5"/><g stroke="#000" stroke-linecap="round" stroke-linejoin="round" stroke-width="1.75"><path d="m49.1665 25.3335v5h-5"/><path d="m30.8335 38.6665v-5h5"/><path d="m32.9248 29.5001c.8591-2.4276 2.9036-4.2448 5.4152-4.8131 2.5117-.5683 5.1393.1917 6.9598 2.0131l3.8667 3.6334"/><path d="m30.8335 33.6665 3.8667 3.6333c1.8204 1.8214 4.448 2.5815 6.9597 2.0132s4.5562-2.3855 5.4153-4.8132"/></g></svg>