<svg xmlns="http://www.w3.org/2000/svg" xmlns:xlink="http://www.w3.org/1999/xlink" width="80" height="80" fill="none" viewBox="0 0 80 80"><linearGradient id="a"><stop offset="0" stop-color="#60dea9"/><stop offset=".938" stop-color="#f1fdcd"/></linearGradient><linearGradient id="b" x1="6" x2="33.633" y1="6" y2="39.756" gradientUnits="userSpaceOnUse" xlink:href="#a"/><linearGradient id="c" x1="43" x2="70.633" y1="43" y2="76.756" gradientUnits="userSpaceOnUse" xlink:href="#a"/><linearGradient id="d" x1="43" x2="70.223" y1="68" y2="45.715" gradientUnits="userSpaceOnUse" xlink:href="#a"/><linearGradient id="e" x1="12" x2="39.223" y1="37" y2="14.716" gradientUnits="userSpaceOnUse" xlink:href="#a"/><linearGradient id="f" x1="20.095" x2="42.465" y1="18" y2="65.915" gradientUnits="userSpaceOnUse"><stop offset="0" stop-color="#60dea9"/><stop offset=".359" stop-color="#60dea9" stop-opacity=".96"/><stop offset=".703" stop-color="#60dea9" stop-opacity=".88"/><stop offset="1" stop-color="#60dea9" stop-opacity=".7"/></linearGradient><path fill="#fff" d="m0 0h80v80h-80z"/><rect width="31" height="31" x="6" y="6" fill="#fff" fill-opacity=".8" rx="1.5"/><rect width="31" height="31" x="6" y="6" fill="url(#b)" fill-opacity=".4" rx="1.5"/><rect width="31" height="31" x="43" y="43" fill="#fff" fill-opacity=".8" rx="1.5"/><rect width="31" height="31" x="43" y="43" fill="url(#c)" fill-opacity=".4" rx="1.5"/><rect width="25" height="25" x="43" y="43" fill="#fff" fill-opacity=".8" rx="1.5"/><rect width="25" height="25" x="43" y="43" fill="url(#d)" fill-opacity=".9" rx="1.5"/><rect width="25" height="25" x="12" y="12" fill="#fff" fill-opacity=".8" rx="1.5"/><rect width="25" height="25" x="12" y="12" fill="url(#e)" fill-opacity=".9" rx="1.5"/><rect width="44" height="44" x="18" y="18" fill="url(#f)" rx="1.5"/><g stroke="#000" stroke-linecap="round" stroke-linejoin="round"><path stroke-width="2" d="m37.5 32.5h-5v5"/><path stroke-width="2" d="m42.5 47.5h5v-5"/><path stroke-width="1.5" d="m32.5002 32.5 5.8333 5.8333"/><path stroke-width="1.5" d="m47.5 47.4998-5.8333-5.8333"/></g></svg>